<svg width="32" height="32" viewBox="0 0 32 32" fill="none" xmlns="http://www.w3.org/2000/svg">
<circle cx="16" cy="16" r="15.5" stroke="white"/>
<path d="M16.0126 13.9425C14.4599 13.9425 13.2008 15.0748 13.2008 16.4732C13.2008 17.8715 14.4599 19.0028 16.0126 19.0028C17.5654 19.0028 18.8244 17.8693 18.8244 16.4732C18.8244 15.077 17.5654 13.9425 16.0126 13.9425ZM21.4172 15.4973H20.1846C20.3044 15.8595 20.3653 16.2363 20.3651 16.6151C20.3651 18.777 18.4164 20.5274 16.0126 20.5274C13.6089 20.5274 11.6601 18.7747 11.6601 16.6151C11.6603 16.2363 11.7211 15.8596 11.8407 15.4973H10.5564V20.9891C10.5567 21.1258 10.6154 21.2569 10.7197 21.3535C10.8239 21.4501 10.9652 21.5044 11.1125 21.5044H20.8623C21.0095 21.5044 21.1508 21.4501 21.2551 21.3535C21.3593 21.2569 21.418 21.1258 21.4184 20.9891L21.4172 15.4973ZM19.1988 11.4431C19.0315 11.4437 18.8712 11.5057 18.7531 11.6157C18.6349 11.7256 18.5684 11.8746 18.568 12.0299V13.4283C18.5684 13.5835 18.6349 13.7324 18.7531 13.8421C18.8714 13.9519 19.0316 14.0137 19.1988 14.014H20.7804C20.9476 14.0137 21.1078 13.9519 21.2261 13.8421C21.3443 13.7324 21.4108 13.5835 21.4111 13.4283V12.0299C21.4108 11.8746 21.3443 11.7256 21.2261 11.6157C21.1079 11.5057 20.9477 11.4437 20.7804 11.4431H19.1988ZM10.7971 10H21.2029C21.6788 10.0021 22.1347 10.1785 22.4712 10.4911C22.8077 10.8036 22.9978 11.2269 23 11.6689V21.3322C22.9975 21.774 22.8073 22.197 22.4708 22.5093C22.1343 22.8216 21.6786 22.9979 21.2029 23H10.7971C10.3214 22.9979 9.86573 22.8216 9.52923 22.5093C9.19272 22.197 9.00253 21.774 9 21.3322V11.6689C9.00222 11.2269 9.19226 10.8036 9.52881 10.4911C9.86535 10.1785 10.3212 10.0021 10.7971 10Z" fill="white"/>
</svg>
