<svg width="32" height="32" viewBox="0 0 32 32" fill="none" xmlns="http://www.w3.org/2000/svg">
<circle cx="16" cy="16" r="15.5" stroke="white"/>
<path d="M23.741 10.8533C23.1892 11.1143 22.5957 11.2909 21.9735 11.3701C22.6087 10.9638 23.0974 10.3209 23.3267 9.55443C22.7328 9.93058 22.0744 10.2039 21.373 10.3512C20.8112 9.71294 20.0112 9.31458 19.1263 9.31458C17.4266 9.31458 16.0486 10.7843 16.0486 12.5966C16.0486 12.8541 16.0757 13.1042 16.1282 13.3442C13.5702 13.2079 11.3031 11.9012 9.78501 9.91488C9.52063 10.4003 9.36871 10.9638 9.36871 11.5653C9.36871 12.7036 9.91187 13.709 10.7371 14.2968C10.2331 14.2806 9.75854 14.1317 9.34349 13.886V13.9275C9.34349 15.5176 10.4044 16.8443 11.8118 17.1458C11.5537 17.2205 11.2811 17.2616 11.0012 17.2616C10.8032 17.2616 10.6098 17.2404 10.4218 17.2019C10.8135 18.5058 11.9498 19.4545 13.2963 19.4816C12.2438 20.3615 10.9172 20.8866 9.47443 20.8866C9.22634 20.8866 8.98169 20.8708 8.74097 20.8407C10.1025 21.7707 11.7202 22.3146 13.4591 22.3146C19.1192 22.3146 22.2144 17.3145 22.2144 12.9769C22.2144 12.8351 22.2111 12.6936 22.2061 12.5518C22.8062 12.0896 23.3273 11.5117 23.741 10.8533Z" fill="white"/>
</svg>
